<svg xmlns="http://www.w3.org/2000/svg" width="16" height="14" viewBox="0 0 16 14"><g><g><path fill="#662d91" d="M12.682 5.004l.003.001a.6.6 0 0 1-.004 1.189l-.081.005H9.002l-.082-.005-.003-.001a.6.6 0 0 1 .004-1.189L9.002 5H12.6zM6 5.4a1.2 1.2 0 1 1-2.399.001 1.2 1.2 0 0 1 2.4 0zm6.682 2.4l.003.002a.6.6 0 0 1-.004 1.188l-.081.006H9.002L8.92 8.99h-.003a.6.6 0 0 1 .004-1.19l.081-.004H12.6zM6.2 7.4l.082.005h.003A.6.6 0 0 1 6.8 8v.394l-.006.087-.022.124c-.18.806-.906 1.195-1.971 1.195-1.119 0-1.865-.43-1.994-1.32L2.8 8.393v-.394l.006-.082v-.003A.6.6 0 0 1 3.4 7.4h2.8zM1.8.599a1.8 1.8 0 0 0-1.8 1.8v9.203a1.8 1.8 0 0 0 1.8 1.8h12.4a1.8 1.8 0 0 0 1.8-1.8V2.4a1.8 1.8 0 0 0-1.8-1.8z"/></g></g></svg>