<svg xmlns="http://www.w3.org/2000/svg" width="16" height="16" viewBox="0 0 16 16"><g><g><path fill="#662d91" d="M10.2 5.998c0 .81-.237 1.26-.84 1.887l-.243.247c-.408.422-.516.635-.516 1.066a.6.6 0 0 1-1.2 0c0-.809.238-1.26.84-1.886l.244-.248C8.893 6.642 9 6.43 9 5.998a1 1 0 0 0-1.995-.102l-.011.185v.003A.6.6 0 0 1 5.8 5.998a2.2 2.2 0 0 1 4.4 0zm-1.4 5.6a.8.8 0 1 1-1.6 0 .8.8 0 0 1 1.6 0zM8-.002a8 8 0 0 0-8 8v.01c0 1.357.339 2.634.916 3.71l-.893 3.43.002-.004a.682.682 0 0 0 .828.833l3.43-.893a7.927 7.927 0 0 0 3.707.913H8a8 8 0 0 0 8-7.999 8 8 0 0 0-8-8z"/></g></g></svg>