<svg xmlns="http://www.w3.org/2000/svg" width="16" height="16" viewBox="0 0 16 16"><g><g><path fill="#fff" d="M13.397 3.31l2.565 9.994a1.198 1.198 0 0 1-.854 1.456l-.008.002-1.497.383a1.198 1.198 0 0 1-1.456-.854l-.002-.008L9.58 4.29a1.198 1.198 0 0 1 .854-1.456h.008l1.497-.386a1.2 1.2 0 0 1 1.456.854l.002.008zM7.584.816c.662 0 1.198.536 1.198 1.198v11.975c0 .661-.536 1.197-1.198 1.197H5.987A1.197 1.197 0 0 1 4.79 13.99V2.014c0-.662.536-1.198 1.197-1.198zm-4.79 0c.662 0 1.198.536 1.198 1.198v11.975c0 .661-.536 1.197-1.198 1.197H1.197A1.197 1.197 0 0 1 0 13.99V2.014C0 1.352.536.816 1.197.816z"/></g></g></svg>