<svg xmlns="http://www.w3.org/2000/svg" width="16" height="16" viewBox="0 0 16 16"><g><g><path fill="#662d91" d="M9.6 4.8a2.8 2.8 0 1 0 5.6 0 2.8 2.8 0 0 0-5.6 0zm-8-.8a3.6 3.6 0 1 0 7.2 0 3.6 3.6 0 0 0-7.2 0zm9.19 5.2zm0 0l.091.13c.2.309.32.674.32 1.07V12l-.006.223c-.046.956-.384 1.719-.907 2.319l-.04-.012a5.72 5.72 0 0 0 1.738.27H12c1.713 0 4-.75 4-3.2v-1.2l-.005-.116-.001-.005A1.2 1.2 0 0 0 14.8 9.2zm-9.59 0l-.115.006H1.08A1.2 1.2 0 0 0 0 10.4V12l.004.184C.132 14.835 3.023 15.6 5.2 15.6c2.227 0 5.2-.8 5.2-3.6v-1.6l-.006-.114v-.005A1.2 1.2 0 0 0 9.2 9.2h-8z"/></g></g></svg>