<svg xmlns="http://www.w3.org/2000/svg" width="21" height="29" viewBox="0 0 21 29"><g><g><path fill="#662d91" d="M10.5.58a5.569 5.569 0 0 1 5.568 5.568V14.5a5.569 5.569 0 1 1-11.137 0V6.148A5.569 5.569 0 0 1 10.5.579zm8.7 12.528c.522 0 .964.386 1.035.902l.01.142v.697a9.397 9.397 0 0 1-8.7 9.372l-.001 3.157a1.044 1.044 0 0 1-2.078.142l-.01-.142V24.22A9.397 9.397 0 0 1 .76 15.177l-.005-.328v-.697a1.044 1.044 0 0 1 2.078-.142l.01.142v.697a7.309 7.309 0 0 0 7.009 7.303l.3.005h.696a7.309 7.309 0 0 0 7.303-7.008l.006-.3v-.697c0-.576.467-1.044 1.044-1.044z"/></g></g></svg>