<svg xmlns="http://www.w3.org/2000/svg" width="31" height="27" viewBox="0 0 31 27"><g><g><path fill="#662d91" d="M9.258 19.395l.001 3.472a.694.694 0 1 1-1.387 0v-3.472H4.397a.694.694 0 1 1 0-1.387h3.474V14.54a.694.694 0 1 1 1.387 0v3.468h3.464a.694.694 0 1 1 0 1.387zm6.936-.693a7.63 7.63 0 1 0-15.259 0 7.63 7.63 0 0 0 15.259 0zm13.54-16.1a1.387 1.387 0 0 0-1.955-.159l-4.65 3.952v9.352l4.65 3.955a1.387 1.387 0 0 0 2.286-1.057V3.5c0-.33-.117-.648-.33-.899zm-7.992 2.575A4.508 4.508 0 0 0 17.234.67H6.83a4.508 4.508 0 0 0-4.508 4.508v7.02a9.016 9.016 0 0 1 14.825 9.279h.087a4.508 4.508 0 0 0 4.508-4.508z"/></g></g></svg>