<svg xmlns="http://www.w3.org/2000/svg" width="27" height="27" viewBox="0 0 27 27"><g><g><path fill="#662d91" d="M20.906 7.153a1.058 1.058 0 0 1 .144 2.106l-.144.01H6.095a1.058 1.058 0 0 1-.144-2.107l.144-.01zM6.095 18.438h14.811a1.058 1.058 0 0 1 .144 2.106l-.144.01H6.095a1.058 1.058 0 0 1-.144-2.106zm10.58-5.643a1.058 1.058 0 0 1 .143 2.106l-.144.01H6.094a1.058 1.058 0 0 1-.143-2.106l.144-.01zm9.521-8.111a3.88 3.88 0 0 0-3.879-3.88H4.684a3.88 3.88 0 0 0-3.88 3.88v17.633a3.88 3.88 0 0 0 3.88 3.88h17.633a3.88 3.88 0 0 0 3.88-3.88z"/></g></g></svg>