<?xml version="1.0" encoding="UTF-8"?><svg id="evaheld-logo" xmlns="http://www.w3.org/2000/svg" viewBox="0 0 300 92"><defs><style>.b{fill:none;}.c{fill:#662d91;}</style></defs><rect class="b" y="0" width="300" height="92"/><g><g><path class="c" d="M98.62,73.94c-.87,0-1.31-.28-1.31-.83v-.18c0-.36,.38-.88,1.13-1.58,.75-.7,1.13-1.5,1.13-2.42V36.6c0-.91-.38-1.73-1.13-2.45-.76-.72-1.13-1.23-1.13-1.55v-.18c0-.56,.4-.83,1.19-.83h25.94c.95,0,1.51,.5,1.67,1.49l1.43,6.44c.2,.92-.12,1.37-.95,1.37h-.3c-.52,0-1.08-.33-1.7-.98-.62-.66-1.17-1.38-1.67-2.18-.5-.79-1.11-1.52-1.85-2.18-.74-.66-1.5-.98-2.3-.98h-10.02c-1.35,0-2.03,.78-2.03,2.33v13.9h9.18c.6,0,1.11-.21,1.55-.63,.44-.42,.77-.86,.98-1.34,.22-.48,.48-.92,.78-1.34,.3-.42,.59-.63,.86-.63h.36c.6,0,.89,.38,.89,1.13v8.47c0,.76-.3,1.13-.89,1.13h-.36c-.28,0-.57-.2-.86-.6-.3-.4-.56-.82-.78-1.28-.22-.46-.55-.88-.98-1.28-.44-.4-.95-.6-1.55-.6h-9.18l-.06,13.96c0,.88,.23,1.62,.69,2.24,.46,.62,1.12,.92,2,.92h11.27c.79,0,1.55-.34,2.27-1.01,.72-.68,1.29-1.43,1.73-2.27,.44-.83,.95-1.59,1.55-2.27,.6-.68,1.17-1.01,1.73-1.01h.42c.32,0,.57,.14,.75,.42,.18,.28,.23,.6,.15,.95l-1.37,6.62c-.24,1.03-.82,1.55-1.73,1.55h-27.49Z"/><path class="c" d="M142.67,74.51c-6.08-.13-9.1-4.04-9-10.58v-11.42c0-.86-.36-1.64-1.07-2.34-.8-.82-1.1-1.12-1.07-1.6,0-.56,.32-.9,.96-1.01l5.97-.96c1.27-.19,1.91,.09,1.91,.84l-.11,18.29c-.04,4.02,1.24,6.04,3.83,6.08,2.66,.04,5.03-1.28,7.09-3.97,2.39-2.96,4.21-9.05,2.36-12.86-.87-1.79-2.15-2.08-3.21-3.57-.92-1.18-1.05-3.18,.06-4.25,.52-.53,1.31-.79,2.36-.79,4.16,.22,5.3,4.38,5.29,8.95,.21,9.88-5.57,19.12-15.36,19.19Z"/><path class="c" d="M190.84,49.02c0,.23-.19,.5-.56,.82-.83,.74-1.75,1.84-1.69,3.12v16.32c-.19,1.73,2.17,2.73,2.14,3.88,0,.53-.32,.79-.96,.79h-5.85c-.71,0-1.07-.36-1.07-1.07v-2.25c-1.84,2.59-4.54,3.88-8.1,3.88-7.57,.05-13.33-6.31-13.11-14.13-.18-7.72,5.56-14.12,13.23-14.01,3.26,0,5.93,1.18,7.99,3.55,.06-1.66-.54-3.82,2.08-3.26l4.9,1.01c.75,.2,1.06,.68,1.01,1.35Zm-14.58,23.35c3.62-.08,6.09-3.37,5.97-7.26v-9c0-1.88-.71-3.61-2.14-5.21-2.69-3.22-7.66-3.22-10.07,.17-4.09,5.52-1.93,21.11,6.25,21.3Z"/><path class="c" d="M222.72,69.17c.07,.83,.43,1.57,1.07,2.22,.73,.79,1,1.17,.96,1.77,0,.53-.39,.79-1.18,.79h-8.27c-.92,0-1.25-.35-1.18-1.01,0-.34,.35-.83,1.04-1.49,.69-.66,1.02-1.4,.98-2.22l-.56-11.14c-.26-6-2.36-9.04-5.91-9-1.76,.02-3.19,.65-4.28,1.94-1.09,1.29-1.63,2.97-1.63,5.04v13.23c0,.79,.38,1.51,1.15,2.17,.77,.66,1.15,1.15,1.15,1.49,.06,.66-.32,1.02-1.24,1.01h-8.72c-.79,0-1.18-.28-1.18-.84-.03-.44,.12-.78,.56-1.15,.77-.7,1.75-1.45,1.69-2.67v-29.88c0-.68-.2-1.24-.59-1.69-.39-.45-.79-.82-1.18-1.1-.39-.28-.59-.57-.59-.87-.04-.59,.24-1.01,.96-1.35l6.02-2.65c1.2-.52,1.8-.22,1.8,.9l-.06,17.5c3.13-4.77,11.29-4.98,15.2-.84,1.99,1.95,3.1,4.93,3.32,8.95l.68,10.92Z"/><path class="c" d="M250.49,65.68c.3-.41,.68-.56,1.15-.45,.47,.11,.68,.45,.65,1.01-.3,2.03-1.41,3.91-3.32,5.66-1.91,1.74-4.47,2.62-7.65,2.62-4.16,0-7.54-1.31-10.13-3.94-2.59-2.63-3.88-6.08-3.88-10.36,0-4.05,1.29-7.36,3.88-9.93,2.59-2.57,5.83-3.91,9.74-3.91,3.03,0,5.52,.62,7.46,1.97,1.93,1.35,2.9,3.25,2.9,5.68,0,2.03-.84,3.75-2.5,5.18-1.67,1.43-3.85,2.44-6.56,3.04-2.21,.49-4.93,.58-8.16,.28,.71,2.25,1.86,4.02,3.43,5.32,1.58,1.29,3.43,1.94,5.57,1.94,1.8,0,3.34-.38,4.61-1.15,1.28-.77,2.21-1.75,2.81-2.95Zm-10.52-17.05c-1.95,0-3.55,.84-4.78,2.5-1.24,1.67-1.86,3.74-1.86,6.22,0,.94,.06,1.84,.17,2.7,2.81,.23,5.31,.11,7.48-.34,1.28-.3,2.27-.87,2.98-1.72,.71-.84,1.05-2.17,1.01-3.97-.04-1.5-.52-2.78-1.44-3.83-.92-1.05-2.11-1.58-3.57-1.58Z"/><path class="c" d="M256.94,73.95c-.79,0-1.18-.28-1.18-.84v-.17c0-.37,.35-.88,1.04-1.52,.69-.64,1.04-1.35,1.04-2.14v-29.66c0-.9-.35-1.71-1.04-2.42-.69-.71-1.04-1.18-1.04-1.41v-.17c0-.34,.32-.68,.96-1.01l5.68-2.81c.64-.26,1.13-.29,1.49-.08,.36,.21,.53,.53,.53,.98v36.58c0,.79,.38,1.51,1.15,2.17,.77,.66,1.15,1.15,1.15,1.49v.17c0,.56-.41,.84-1.24,.84h-8.55Z"/><path class="c" d="M297.06,69.28c0,.83,.36,1.58,1.07,2.25,.71,.68,1.07,1.16,1.07,1.46v.17c0,.53-.32,.79-.96,.79h-5.85c-.68,0-1.05-.36-1.13-1.07l-.17-1.97c-1.88,2.4-4.5,3.6-7.88,3.6-3.6,0-6.69-1.29-9.26-3.88-2.57-2.59-3.86-6-3.86-10.24s1.27-7.45,3.8-10.07c2.53-2.63,5.67-3.95,9.43-3.94,2.92,0,5.39,.97,7.37,2.87v-10.58c0-.71-.22-1.29-.65-1.74-.43-.45-.86-.82-1.29-1.1-.43-.28-.65-.59-.65-.93v-.11c0-.49,.34-.86,1.01-1.13l5.97-1.91c1.31-.45,1.97-.11,1.97,1.01v36.52Zm-12.32,3.1c1.54,0,2.92-.64,4.14-1.91,1.22-1.28,1.83-3.06,1.83-5.35v-9c0-1.88-.71-3.61-2.14-5.21-1.43-1.59-3.09-2.39-5.01-2.39-2.1,0-3.79,.85-5.06,2.56-1.28,1.71-1.93,4.04-1.97,7.01-.08,3.94,.65,7.3,2.17,10.07,1.52,2.78,3.54,4.18,6.05,4.22Z"/></g><g><path class="c" d="M19.1,82.01c-.13,0-.25,0-.38,0-3.3-.12-5.89-1.1-7.7-2.91-3.19-3.19-3.41-8.56-.62-14.76C0,58.27,.23,50.82,1.29,46.9c1.24-4.55,4.74-9,9.84-12.52,4.96-3.42,10.93-5.52,16.42-5.79,.27-5.49,2.37-11.46,5.79-16.42,3.52-5.11,7.97-8.6,12.52-9.84,1.19-.32,2.4-.49,3.6-.49,3.76,0,9.2,1.67,13.83,9.6,2.95-1.34,5.8-2.05,8.25-2.05,2.81,0,5.06,.93,6.52,2.68,5.29,6.36,2.27,16.93-1.2,24.69-3.79,8.47-9.56,16.6-12.03,18.7-.45,.39-.89,.58-1.33,.58-.33,0-.66-.09-.95-.27-.74-.45-1.06-1.37-.76-2.18,4.33-11.83,4.24-25.33-.23-37.07-6.91,4.29-15.42,13.34-18.78,26.01-.08,.31-.24,.59-.47,.82-.23,.23-.52,.4-.83,.48-12.66,3.36-21.71,11.87-26.01,18.78,5.98,2.28,12.32,3.43,18.84,3.43h0c6.29,0,12.42-1.08,18.23-3.2,.2-.07,.41-.11,.63-.11,.63,0,1.23,.34,1.56,.88,.45,.74,.32,1.68-.32,2.29-4.23,4-18.65,14.69-34.43,16.09-.29,.03-.58,.04-.87,.04Zm-5.37-16.17c-2.1,4.67-2.15,8.65-.13,10.67,1.21,1.21,3.14,1.83,5.74,1.83,5.32,0,13.29-2.66,22.44-7.49,1.07-.55,2.27-1.31,3.59-2.24-3.62,.71-7.34,1.07-11.06,1.07h0c-7.14,0-14.07-1.29-20.59-3.84Zm15.03-33.62c-4.87,0-10.32,1.74-14.97,4.77-4.65,3.03-7.92,7-8.98,10.88-1.37,5.04,1.15,9.61,7.29,13.24,4.47-7.41,13.99-16.65,27.42-20.53,3.88-13.43,13.12-22.95,20.53-27.42-3-5.08-6.56-7.66-10.59-7.66-.86,0-1.75,.12-2.65,.37-8.31,2.27-15.91,14.17-15.64,24.49,.01,.5-.18,.99-.53,1.34-.34,.34-.82,.54-1.3,.54h-.04c-.18,0-.36,0-.54,0ZM64.8,14.77c3.86,9.88,4.84,21.09,2.76,31.64,.93-1.31,1.68-2.5,2.23-3.56h0l.02-.04c7.32-13.86,9.44-24.39,5.66-28.17-.97-.97-2.43-1.48-4.23-1.48s-4.11,.56-6.45,1.61Z"/><path class="c" d="M77.94,12.17c-2.86-3.44-8.54-3.37-14.71-.53C57.21,1.22,49.82,1.41,45.9,2.48c-9.38,2.56-17.71,14.78-18.2,26.26-11.48,.49-23.7,8.82-26.26,18.2-1.07,3.91-1.26,11.31,9.16,17.33-2.8,6.13-2.63,11.55,.53,14.71,1.5,1.5,3.87,2.73,7.6,2.87,.41,.01,.82,0,1.23-.03,15.33-1.36,29.7-11.66,34.34-16.05,.58-.55,.71-1.42,.29-2.1-.41-.68-1.25-.98-2-.7-12,4.39-25.5,4.26-37.35-.3,4.28-6.97,13.28-15.58,26.19-19,.28-.08,.55-.23,.76-.44s.36-.47,.43-.75c3.43-12.91,12.03-21.91,19-26.19,4.56,11.85,4.69,25.35,.3,37.35-.27,.75,.02,1.59,.7,2,.27,.17,.57,.25,.87,.25,.46,0,.86-.23,1.23-.54,4.59-3.89,22.99-31.43,13.21-43.17Zm-31.92,56.15c-1.53,1.12-2.94,2.03-4.18,2.66-13.93,7.36-24.53,9.47-28.35,5.64-2.1-2.1-2.01-6.23,.16-10.97,10.21,4.02,21.6,4.92,32.37,2.67Zm-6.37-27.62c-13.58,3.9-23.05,13.17-27.49,20.62-6.31-3.68-8.9-8.33-7.49-13.49,2.24-8.22,13.84-15.76,24.1-15.76,.18,0,.36,0,.55,0,.44,.01,.91-.17,1.23-.49,.33-.32,.5-.77,.49-1.23-.27-10.38,7.38-22.36,15.75-24.64,5.16-1.41,9.81,1.18,13.49,7.49-7.44,4.44-16.71,13.91-20.62,27.49Zm30.29,2.2h0c-.63,1.24-1.53,2.65-2.66,4.18,2.25-10.77,1.35-22.16-2.67-32.37,4.75-2.17,8.87-2.25,10.97-.16,3.83,3.83,1.72,14.42-5.64,28.35Z"/></g></g></svg>
